<svg>
<symbol id="tds-icon-performance-filled" viewBox="0 0 24 24" xmlns="http://www.w3.org/2000/svg">
    <path opacity=".2" d="M20.966 17c-.532 0-.94-.468-.94-1 0-4.413-3.589-8-8.026-8-4.437 0-8.026 3.587-8.026 8 0 .532-.408 1-.94 1h-.116c-.508 0-.938-.385-.943-.892V16C1.974 10.477 6.462 6 12 6s10.026 4.477 10.026 10v.108c-.006.507-.436.892-.944.892h-.116Z"
      fill="currentColor" />
    <path d="M12.107 6c.507.006.893.436.893.944v.115c0 .532-.467.941-1 .941-4.437 0-8.026 3.587-8.026 8 0 .532-.408 1-.94 1h-.116c-.508 0-.938-.385-.943-.892V16C1.974 10.477 6.462 6 12 6h.107ZM12 17.026c.69 0 1.25-.6 1.25-1.339 0-.869-.65-3.896-1.013-5.517a.243.243 0 0 0-.475 0c-.362 1.621-1.012 4.648-1.012 5.517 0 .74.56 1.339 1.25 1.339Z"
      fill="currentColor" />
  </symbol>
<symbol id="tds-icon-performance" viewBox="0 0 24 24" xmlns="http://www.w3.org/2000/svg">
    <path opacity=".2" d="M12 8c-4.399 0-8 3.674-8 8.25a.75.75 0 0 1-1.5 0c0-5.365 4.234-9.75 9.5-9.75 5.267 0 9.5 4.385 9.5 9.75a.75.75 0 0 1-1.5 0C20 11.674 16.398 8 12 8Z"
      fill="currentColor" />
    <path d="M4 16.25C4 11.674 7.601 8 12 8a.75.75 0 0 0 0-1.5c-5.266 0-9.5 4.385-9.5 9.75a.75.75 0 0 0 1.5 0Zm8 .775c.69 0 1.25-.6 1.25-1.339 0-.869-.65-3.896-1.012-5.517a.242.242 0 0 0-.476 0c-.362 1.621-1.012 4.648-1.012 5.517 0 .74.56 1.339 1.25 1.339Z"
      fill="currentColor" />
  </symbol>
 <use href="#tds-icon-performance-filled"></use>
  <use href="#tds-icon-performance"></use>
  </svg>